REM DIRINDEX 1\2,1\4,1\3\5,1\3\6,1\3\7
REM DIRNAME cjc081,folder01,folder02,folder03,folder04,folder05,folder06
TITLE ""
FILE "CD2Track15.mp3" MP3
  TRACK 01 AUDIO
    TITLE "0:"
    INDEX 01 00:00:00
  TRACK 02 AUDIO
    TITLE "5:cjc081_1403"
    INDEX 01 00:00:29
  TRACK 03 AUDIO
    TITLE "0:"
    INDEX 01 00:01:56
  TRACK 04 AUDIO
    TITLE "6:cjc081_1404"
    INDEX 01 00:02:26
  TRACK 05 AUDIO
    TITLE "0:"
    INDEX 01 00:03:64
  TRACK 06 AUDIO
    TITLE "5:cjc081_1405"
    INDEX 01 00:04:33
  TRACK 07 AUDIO
    TITLE "0:"
    INDEX 01 00:05:48
  TRACK 08 AUDIO
    TITLE "6:cjc081_1406"
    INDEX 01 00:06:18
  TRACK 09 AUDIO
    TITLE "0:"
    INDEX 01 00:09:38
  TRACK 10 AUDIO
    TITLE "5:cjc081_1407"
    INDEX 01 00:10:04
  TRACK 11 AUDIO
    TITLE "0:"
    INDEX 01 00:11:35
  TRACK 12 AUDIO
    TITLE "6:cjc081_1408"
    INDEX 01 00:12:03
  TRACK 13 AUDIO
    TITLE "0:"
    INDEX 01 00:13:14
  TRACK 14 AUDIO
    TITLE "5:cjc081_1409"
    INDEX 01 00:13:57
  TRACK 15 AUDIO
    TITLE "0:"
    INDEX 01 00:15:03
  TRACK 16 AUDIO
    TITLE "6:cjc081_1410"
    INDEX 01 00:15:48
  TRACK 17 AUDIO
    TITLE "0:"
    INDEX 01 00:16:61
  TRACK 18 AUDIO
    TITLE "5:cjc081_1411"
    INDEX 01 00:17:27
  TRACK 19 AUDIO
    TITLE "0:"
    INDEX 01 00:18:35
  TRACK 20 AUDIO
    TITLE "6:cjc081_1412"
    INDEX 01 00:19:05
  TRACK 21 AUDIO
    TITLE "0:"
    INDEX 01 00:20:32
  TRACK 22 AUDIO
    TITLE "5:cjc081_1413"
    INDEX 01 00:21:04
  TRACK 23 AUDIO
    TITLE "0:"
    INDEX 01 00:22:30
  TRACK 24 AUDIO
    TITLE "6:cjc081_1414"
    INDEX 01 00:23:01
  TRACK 25 AUDIO
    TITLE "0:"
    INDEX 01 00:24:16
  TRACK 26 AUDIO
    TITLE "5:cjc081_1415"
    INDEX 01 00:24:59
  TRACK 27 AUDIO
    TITLE "0:"
    INDEX 01 00:26:15
  TRACK 28 AUDIO
    TITLE "6:cjc081_1416"
    INDEX 01 00:26:60
  TRACK 29 AUDIO
    TITLE "0:"
    INDEX 01 00:28:13
  TRACK 30 AUDIO
    TITLE "5:cjc081_1417"
    INDEX 01 00:28:57
  TRACK 31 AUDIO
    TITLE "0:"
    INDEX 01 00:30:24
  TRACK 32 AUDIO
    TITLE "6:cjc081_1418"
    INDEX 01 00:30:67
  TRACK 33 AUDIO
    TITLE "0:"
    INDEX 01 00:33:07
  TRACK 34 AUDIO
    TITLE "5:cjc081_1419"
    INDEX 01 00:33:52
  TRACK 35 AUDIO
    TITLE "0:"
    INDEX 01 00:34:61
  TRACK 36 AUDIO
    TITLE "6:cjc081_1420"
    INDEX 01 00:35:33
  TRACK 37 AUDIO
    TITLE "0:"
    INDEX 01 00:36:52
  TRACK 38 AUDIO
    TITLE "5:cjc081_1421"
    INDEX 01 00:37:22
  TRACK 39 AUDIO
    TITLE "0:"
    INDEX 01 00:38:49
  TRACK 40 AUDIO
    TITLE "6:cjc081_1422"
    INDEX 01 00:39:21
  TRACK 41 AUDIO
    TITLE "0:"
    INDEX 01 00:40:38
  TRACK 42 AUDIO
    TITLE "5:cjc081_1423"
    INDEX 01 00:41:08
  TRACK 43 AUDIO
    TITLE "0:"
    INDEX 01 00:42:23
  TRACK 44 AUDIO
    TITLE "6:cjc081_1424"
    INDEX 01 00:42:66
  TRACK 45 AUDIO
    TITLE "0:"
    INDEX 01 00:44:48
  TRACK 46 AUDIO
    TITLE "5:cjc081_1425"
    INDEX 01 00:45:16
  TRACK 47 AUDIO
    TITLE "0:"
    INDEX 01 00:46:27
  TRACK 48 AUDIO
    TITLE "6:cjc081_1426"
    INDEX 01 00:47:01
  TRACK 49 AUDIO
    TITLE "0:"
    INDEX 01 00:48:55
  TRACK 50 AUDIO
    TITLE "5:cjc081_1427"
    INDEX 01 00:49:25
  TRACK 51 AUDIO
    TITLE "0:"
    INDEX 01 00:50:62
  TRACK 52 AUDIO
    TITLE "6:cjc081_1428"
    INDEX 01 00:51:36
  TRACK 53 AUDIO
    TITLE "0:"
    INDEX 01 00:52:65
  TRACK 54 AUDIO
    TITLE "5:cjc081_1429"
    INDEX 01 00:53:37
  TRACK 55 AUDIO
    TITLE "0:"
    INDEX 01 00:54:62
  TRACK 56 AUDIO
    TITLE "6:cjc081_1430"
    INDEX 01 00:55:30
  TRACK 57 AUDIO
    TITLE "0:"
    INDEX 01 00:56:33
  TRACK 58 AUDIO
    TITLE "7:cjc081_1431"
    INDEX 01 00:57:72
  TRACK 59 AUDIO
    TITLE "0:"
    INDEX 01 01:08:46
